<svg xmlns="http://www.w3.org/2000/svg" xmlns:v="https://svgstorm.com"
viewBox = "0 0 512 512"
width="512"
height="512">
<g fill="None" fill-opacity="0.0" stroke="#000000" stroke-opacity="0.00" stroke-width="0.3"><path d="
M 0.00 512.00 
L 395.00 512.00
C 382.85 504.64 375.57 494.71 363.30 486.70 C 351.04 478.69 345.48 464.67 329.00 464.00 C 312.52 463.33 289.46 465.31 272.00 464.00 C 254.54 462.69 234.02 467.87 217.31 461.69 C 200.59 455.52 205.56 430.83 205.00 417.00
C 178.12 416.86 140.84 417.19 115.00 417.00 C 89.16 416.81 55.63 423.06 44.08 396.92 C 32.52 370.79 43.15 337.22 40.00 310.00 C 36.85 282.78 40.33 254.63 52.77 232.77 C 65.21 210.92 77.10 200.32 99.23 188.23 C 121.36 176.14 153.52 177.63 180.00 178.00 C 206.48 178.37 244.06 177.52 270.00 178.00 C 295.94 178.48 316.40 188.30 335.25 203.75 C 354.09 219.21 364.00 238.77 369.00 261.00
C 394.17 259.38 415.44 263.17 441.00 261.00 C 466.56 258.83 475.09 278.35 472.00 302.00 C 468.91 325.65 474.32 350.04 472.00 374.00 C 469.68 397.96 475.09 421.75 472.00 446.00 C 468.91 470.25 434.18 463.32 417.00 464.00
C 414.62 479.91 423.94 503.05 407.00 512.00
L 512.00 512.00
L 512.00 0.00
L 219.00 0.00
C 279.98 8.10 312.04 83.06 277.75 133.75 C 243.45 184.43 167.45 183.84 133.70 133.30 C 99.94 82.77 131.58 7.73 193.00 0.00
L 0.00 0.00
L 0.00 512.00 Z"/>
</g>
<g fill="None" fill-opacity="0.0" stroke="#ffffff" stroke-opacity="0.96" stroke-width="0.3"><path d="
M 219.00 0.00 
L 193.00 0.00
C 131.58 7.73 99.94 82.77 133.70 133.30 C 167.45 183.84 243.45 184.43 277.75 133.75 C 312.04 83.06 279.98 8.10 219.00 0.00
M 206.00 32.00 
C 246.09 32.12 272.43 79.06 251.23 113.23 C 230.03 147.40 180.77 146.81 160.08 112.92 C 139.39 79.03 165.43 31.88 206.00 32.00 Z"/>
</g>
<g fill="None" fill-opacity="0.0" stroke="#000000" stroke-opacity="0.00" stroke-width="0.3"><path d="
M 206.00 32.00 
C 165.43 31.88 139.39 79.03 160.08 112.92 C 180.77 146.81 230.03 147.40 251.23 113.23 C 272.43 79.06 246.09 32.12 206.00 32.00 Z"/>
</g>
<g fill="None" fill-opacity="0.0" stroke="#ffffff" stroke-opacity="0.97" stroke-width="0.3"><path d="
M 395.00 512.00 
L 407.00 512.00
C 423.94 503.05 414.62 479.91 417.00 464.00
C 434.18 463.32 468.91 470.25 472.00 446.00 C 475.09 421.75 469.68 397.96 472.00 374.00 C 474.32 350.04 468.91 325.65 472.00 302.00 C 475.09 278.35 466.56 258.83 441.00 261.00 C 415.44 263.17 394.17 259.38 369.00 261.00
C 364.00 238.77 354.09 219.21 335.25 203.75 C 316.40 188.30 295.94 178.48 270.00 178.00 C 244.06 177.52 206.48 178.37 180.00 178.00 C 153.52 177.63 121.36 176.14 99.23 188.23 C 77.10 200.32 65.21 210.92 52.77 232.77 C 40.33 254.63 36.85 282.78 40.00 310.00 C 43.15 337.22 32.52 370.79 44.08 396.92 C 55.63 423.06 89.16 416.81 115.00 417.00 C 140.84 417.19 178.12 416.86 205.00 417.00
C 205.56 430.83 200.59 455.52 217.31 461.69 C 234.02 467.87 254.54 462.69 272.00 464.00 C 289.46 465.31 312.52 463.33 329.00 464.00 C 345.48 464.67 351.04 478.69 363.30 486.70 C 375.57 494.71 382.85 504.64 395.00 512.00
M 335.00 261.00 
C 315.26 262.81 291.32 258.59 272.00 261.00 C 252.68 263.41 229.96 254.28 213.92 265.92 C 197.87 277.56 206.88 301.66 205.00 320.00 C 203.12 338.34 206.41 364.91 205.00 384.00
C 185.33 384.00 165.67 384.00 146.00 384.00
C 145.79 367.35 146.28 341.76 146.00 326.00 C 145.72 310.24 151.40 283.03 129.98 283.02 C 108.55 283.02 113.18 309.01 113.00 325.00 C 112.82 340.99 113.14 367.09 113.00 384.00
C 102.36 381.90 88.29 386.80 78.00 384.00 C 67.71 381.20 74.45 363.63 73.00 354.00 C 71.55 344.37 73.78 329.40 73.00 319.00 C 72.22 308.60 73.63 294.31 73.00 284.00 C 72.37 273.69 74.98 263.43 78.92 254.92 C 82.87 246.42 86.47 240.56 92.75 233.75 C 99.04 226.94 104.74 223.21 113.08 219.08 C 121.41 214.94 129.69 211.38 140.00 211.00 C 150.31 210.63 164.07 211.13 175.00 211.00 C 185.93 210.87 198.94 210.96 210.00 211.00 C 221.06 211.04 234.21 210.78 245.00 211.00 C 255.79 211.22 269.35 210.03 279.00 212.00 C 288.65 213.97 296.33 217.32 304.08 221.92 C 311.82 226.53 316.77 231.75 322.75 238.25 C 328.73 244.75 331.71 253.15 335.00 261.00
M 440.00 294.00 
C 440.00 339.67 440.00 385.33 440.00 431.00
C 426.11 430.98 412.50 430.61 398.93 431.93 C 385.36 433.24 382.21 448.13 384.00 460.00
C 364.52 445.04 353.47 428.22 326.00 431.00 C 298.53 433.78 265.93 428.92 238.00 431.00
C 238.00 385.33 238.00 339.67 238.00 294.00
C 305.33 294.00 372.67 294.00 440.00 294.00 Z"/>
</g>
<g fill="None" fill-opacity="0.0" stroke="#000000" stroke-opacity="0.00" stroke-width="0.3"><path d="
M 335.00 261.00 
C 331.71 253.15 328.73 244.75 322.75 238.25 C 316.77 231.75 311.82 226.53 304.08 221.92 C 296.33 217.32 288.65 213.97 279.00 212.00 C 269.35 210.03 255.79 211.22 245.00 211.00 C 234.21 210.78 221.06 211.04 210.00 211.00 C 198.94 210.96 185.93 210.87 175.00 211.00 C 164.07 211.13 150.31 210.63 140.00 211.00 C 129.69 211.38 121.41 214.94 113.08 219.08 C 104.74 223.21 99.04 226.94 92.75 233.75 C 86.47 240.56 82.87 246.42 78.92 254.92 C 74.98 263.43 72.37 273.69 73.00 284.00 C 73.63 294.31 72.22 308.60 73.00 319.00 C 73.78 329.40 71.55 344.37 73.00 354.00 C 74.45 363.63 67.71 381.20 78.00 384.00 C 88.29 386.80 102.36 381.90 113.00 384.00
C 113.14 367.09 112.82 340.99 113.00 325.00 C 113.18 309.01 108.55 283.02 129.98 283.02 C 151.40 283.03 145.72 310.24 146.00 326.00 C 146.28 341.76 145.79 367.35 146.00 384.00
C 165.67 384.00 185.33 384.00 205.00 384.00
C 206.41 364.91 203.12 338.34 205.00 320.00 C 206.88 301.66 197.87 277.56 213.92 265.92 C 229.96 254.28 252.68 263.41 272.00 261.00 C 291.32 258.59 315.26 262.81 335.00 261.00 Z"/>
</g>
<g fill="None" fill-opacity="0.0" stroke="#000000" stroke-opacity="0.00" stroke-width="0.3"><path d="
M 440.00 294.00 
C 372.67 294.00 305.33 294.00 238.00 294.00
C 238.00 339.67 238.00 385.33 238.00 431.00
C 265.93 428.92 298.53 433.78 326.00 431.00 C 353.47 428.22 364.52 445.04 384.00 460.00
C 382.21 448.13 385.36 433.24 398.93 431.93 C 412.50 430.61 426.11 430.98 440.00 431.00
C 440.00 385.33 440.00 339.67 440.00 294.00
M 287.00 346.00 
C 308.20 348.31 303.41 382.86 282.00 379.00 C 260.59 375.14 266.02 343.71 287.00 346.00
M 341.00 346.00 
C 362.20 348.31 357.41 382.86 336.00 379.00 C 314.59 375.14 320.02 343.71 341.00 346.00
M 395.00 346.00 
C 416.24 348.32 411.47 382.90 390.00 379.00 C 368.53 375.10 374.06 343.72 395.00 346.00 Z"/>
</g>
<g fill="None" fill-opacity="0.0" stroke="#FFFFFF" stroke-opacity="0.93" stroke-width="0.3"><path d="
M 287.00 346.00 
C 266.02 343.71 260.59 375.14 282.00 379.00 C 303.41 382.86 308.20 348.31 287.00 346.00 Z"/>
</g>
<g fill="None" fill-opacity="0.0" stroke="#FFFFFF" stroke-opacity="0.93" stroke-width="0.3"><path d="
M 341.00 346.00 
C 320.02 343.71 314.59 375.14 336.00 379.00 C 357.41 382.86 362.20 348.31 341.00 346.00 Z"/>
</g>
<g fill="None" fill-opacity="0.0" stroke="#FFFFFF" stroke-opacity="0.93" stroke-width="0.3"><path d="
M 395.00 346.00 
C 374.06 343.72 368.53 375.10 390.00 379.00 C 411.47 382.90 416.24 348.32 395.00 346.00 Z"/>
</g>
<g fill="#000000" fill-opacity="0.00" stroke="None">
<path d="
M 0.00 512.00 
L 395.00 512.00
C 382.85 504.64 375.57 494.71 363.30 486.70 C 351.04 478.69 345.48 464.67 329.00 464.00 C 312.52 463.33 289.46 465.31 272.00 464.00 C 254.54 462.69 234.02 467.87 217.31 461.69 C 200.59 455.52 205.56 430.83 205.00 417.00
C 178.12 416.86 140.84 417.19 115.00 417.00 C 89.16 416.81 55.63 423.06 44.08 396.92 C 32.52 370.79 43.15 337.22 40.00 310.00 C 36.85 282.78 40.33 254.63 52.77 232.77 C 65.21 210.92 77.10 200.32 99.23 188.23 C 121.36 176.14 153.52 177.63 180.00 178.00 C 206.48 178.37 244.06 177.52 270.00 178.00 C 295.94 178.48 316.40 188.30 335.25 203.75 C 354.09 219.21 364.00 238.77 369.00 261.00
C 394.17 259.38 415.44 263.17 441.00 261.00 C 466.56 258.83 475.09 278.35 472.00 302.00 C 468.91 325.65 474.32 350.04 472.00 374.00 C 469.68 397.96 475.09 421.75 472.00 446.00 C 468.91 470.25 434.18 463.32 417.00 464.00
C 414.62 479.91 423.94 503.05 407.00 512.00
L 512.00 512.00
L 512.00 0.00
L 219.00 0.00
C 279.98 8.10 312.04 83.06 277.75 133.75 C 243.45 184.43 167.45 183.84 133.70 133.30 C 99.94 82.77 131.58 7.73 193.00 0.00
L 0.00 0.00
L 0.00 512.00 Z"/>
</g>
<g fill="#ffffff" fill-opacity="0.96" stroke="None"> <!-- cabeza -->
<path d="
M 219.00 0.00 
L 193.00 0.00
C 131.58 7.73 99.94 82.77 133.70 133.30 C 167.45 183.84 243.45 184.43 277.75 133.75 C 312.04 83.06 279.98 8.10 219.00 0.00
M 206.00 32.00 
C 246.09 32.12 272.43 79.06 251.23 113.23 C 230.03 147.40 180.77 146.81 160.08 112.92 C 139.39 79.03 165.43 31.88 206.00 32.00 Z"/>
</g>
<g fill="#000000" fill-opacity="0.00" stroke="None">
<path d="
M 206.00 32.00 
C 165.43 31.88 139.39 79.03 160.08 112.92 C 180.77 146.81 230.03 147.40 251.23 113.23 C 272.43 79.06 246.09 32.12 206.00 32.00 Z"/>
</g>
<g fill="#ffffff" fill-opacity="0.97" stroke="None">
<path d="
M 395.00 512.00 
L 407.00 512.00
C 423.94 503.05 414.62 479.91 417.00 464.00
C 434.18 463.32 468.91 470.25 472.00 446.00 C 475.09 421.75 469.68 397.96 472.00 374.00 C 474.32 350.04 468.91 325.65 472.00 302.00 C 475.09 278.35 466.56 258.83 441.00 261.00 C 415.44 263.17 394.17 259.38 369.00 261.00
C 364.00 238.77 354.09 219.21 335.25 203.75 C 316.40 188.30 295.94 178.48 270.00 178.00 C 244.06 177.52 206.48 178.37 180.00 178.00 C 153.52 177.63 121.36 176.14 99.23 188.23 C 77.10 200.32 65.21 210.92 52.77 232.77 C 40.33 254.63 36.85 282.78 40.00 310.00 C 43.15 337.22 32.52 370.79 44.08 396.92 C 55.63 423.06 89.16 416.81 115.00 417.00 C 140.84 417.19 178.12 416.86 205.00 417.00
C 205.56 430.83 200.59 455.52 217.31 461.69 C 234.02 467.87 254.54 462.69 272.00 464.00 C 289.46 465.31 312.52 463.33 329.00 464.00 C 345.48 464.67 351.04 478.69 363.30 486.70 C 375.57 494.71 382.85 504.64 395.00 512.00
M 335.00 261.00 

C 315.26 262.81 291.32 258.59 272.00 261.00 C 252.68 263.41 229.96 254.28 213.92 265.92 C 197.87 277.56 206.88 301.66 205.00 320.00 C 203.12 338.34 206.41 364.91 205.00 384.00
C 185.33 384.00 165.67 384.00 146.00 384.00
C 145.79 367.35 146.28 341.76 146.00 326.00 C 145.72 310.24 151.40 283.03 129.98 283.02 C 108.55 283.02 113.18 309.01 113.00 325.00 C 112.82 340.99 113.14 367.09 113.00 384.00
C 102.36 381.90 88.29 386.80 78.00 384.00 C 67.71 381.20 74.45 363.63 73.00 354.00 C 71.55 344.37 73.78 329.40 73.00 319.00 C 72.22 308.60 73.63 294.31 73.00 284.00 C 72.37 273.69 74.98 263.43 78.92 254.92 C 82.87 246.42 86.47 240.56 92.75 233.75 C 99.04 226.94 104.74 223.21 113.08 219.08 C 121.41 214.94 129.69 211.38 140.00 211.00 C 150.31 210.63 164.07 211.13 175.00 211.00 C 185.93 210.87 198.94 210.96 210.00 211.00 C 221.06 211.04 234.21 210.78 245.00 211.00 C 255.79 211.22 269.35 210.03 279.00 212.00 C 288.65 213.97 296.33 217.32 304.08 221.92 C 311.82 226.53 316.77 231.75 322.75 238.25 C 328.73 244.75 331.71 253.15 335.00 261.00
M 440.00 294.00 
C 440.00 339.67 440.00 385.33 440.00 431.00
C 426.11 430.98 412.50 430.61 398.93 431.93 C 385.36 433.24 382.21 448.13 384.00 460.00
C 364.52 445.04 353.47 428.22 326.00 431.00 C 298.53 433.78 265.93 428.92 238.00 431.00
C 238.00 385.33 238.00 339.67 238.00 294.00
C 305.33 294.00 372.67 294.00 440.00 294.00 Z"/>
</g>
<g fill="#000000" fill-opacity="0.00" stroke="None">
<path d="
M 335.00 261.00 
C 331.71 253.15 328.73 244.75 322.75 238.25 C 316.77 231.75 311.82 226.53 304.08 221.92 C 296.33 217.32 288.65 213.97 279.00 212.00 C 269.35 210.03 255.79 211.22 245.00 211.00 C 234.21 210.78 221.06 211.04 210.00 211.00 C 198.94 210.96 185.93 210.87 175.00 211.00 C 164.07 211.13 150.31 210.63 140.00 211.00 C 129.69 211.38 121.41 214.94 113.08 219.08 C 104.74 223.21 99.04 226.94 92.75 233.75 C 86.47 240.56 82.87 246.42 78.92 254.92 C 74.98 263.43 72.37 273.69 73.00 284.00 C 73.63 294.31 72.22 308.60 73.00 319.00 C 73.78 329.40 71.55 344.37 73.00 354.00 C 74.45 363.63 67.71 381.20 78.00 384.00 C 88.29 386.80 102.36 381.90 113.00 384.00
C 113.14 367.09 112.82 340.99 113.00 325.00 C 113.18 309.01 108.55 283.02 129.98 283.02 C 151.40 283.03 145.72 310.24 146.00 326.00 C 146.28 341.76 145.79 367.35 146.00 384.00
C 165.67 384.00 185.33 384.00 205.00 384.00
C 206.41 364.91 203.12 338.34 205.00 320.00 C 206.88 301.66 197.87 277.56 213.92 265.92 C 229.96 254.28 252.68 263.41 272.00 261.00 C 291.32 258.59 315.26 262.81 335.00 261.00 Z"/>
</g>
<g fill="#000000" fill-opacity="0.00" stroke="None">
<path d="
M 440.00 294.00 
C 372.67 294.00 305.33 294.00 238.00 294.00
C 238.00 339.67 238.00 385.33 238.00 431.00
C 265.93 428.92 298.53 433.78 326.00 431.00 C 353.47 428.22 364.52 445.04 384.00 460.00
C 382.21 448.13 385.36 433.24 398.93 431.93 C 412.50 430.61 426.11 430.98 440.00 431.00
C 440.00 385.33 440.00 339.67 440.00 294.00
M 287.00 346.00 
C 308.20 348.31 303.41 382.86 282.00 379.00 C 260.59 375.14 266.02 343.71 287.00 346.00
M 341.00 346.00 
C 362.20 348.31 357.41 382.86 336.00 379.00 C 314.59 375.14 320.02 343.71 341.00 346.00
M 395.00 346.00 
C 416.24 348.32 411.47 382.90 390.00 379.00 C 368.53 375.10 374.06 343.72 395.00 346.00 Z"/>
</g>
<g fill="#FFFFFF" fill-opacity="0.93" stroke="None">
<path d="
M 287.00 346.00 
C 266.02 343.71 260.59 375.14 282.00 379.00 C 303.41 382.86 308.20 348.31 287.00 346.00 Z"/>
</g>
<g fill="#FFFFFF" fill-opacity="0.93" stroke="None">
<path d="
M 341.00 346.00 
C 320.02 343.71 314.59 375.14 336.00 379.00 C 357.41 382.86 362.20 348.31 341.00 346.00 Z"/>
</g>
<g fill="#FFFFFF" fill-opacity="0.93" stroke="None">
<path d="
M 395.00 346.00 
C 374.06 343.72 368.53 375.10 390.00 379.00 C 411.47 382.90 416.24 348.32 395.00 346.00 Z"/>
</g>
</svg>