<svg xmlns="http://www.w3.org/2000/svg" viewBox="140 400 750 180">
<g>
<path d="M 160.38 572.67 C157.57,571.32 154.53,569.17 153.63,567.88 C151.61,565.00 151.52,558.82 153.45,555.10 C155.12,551.87 165.31,542.27 168.71,540.72 C171.59,539.41 173.20,540.77 170.49,542.21 C169.40,542.79 165.94,545.86 162.81,549.03 C156.88,555.04 155.12,559.34 156.43,564.57 C157.93,570.57 172.29,573.30 188.00,570.57 C223.09,564.47 266.68,539.04 275.66,519.44 C277.83,514.69 278.00,513.54 277.02,510.55 C274.48,502.87 264.18,499.09 230.41,493.45 C200.92,488.52 191.97,486.55 185.07,483.45 C173.12,478.09 170.28,471.27 175.92,461.44 C188.83,438.93 249.05,410.11 283.91,409.74 C294.66,409.63 298.37,410.97 301.36,416.04 C303.63,419.88 303.42,422.77 300.42,428.79 C296.85,435.95 282.00,449.38 282.00,445.45 C282.00,445.15 285.08,441.87 288.84,438.16 C303.54,423.66 301.64,413.01 284.36,413.00 C277.57,413.00 261.67,415.93 251.60,419.04 C243.31,421.60 221.51,430.99 213.02,435.65 C203.27,441.00 191.22,450.03 184.76,456.81 C175.81,466.20 174.76,471.15 180.56,476.62 C185.35,481.14 192.40,483.10 221.50,487.99 C252.59,493.22 261.96,495.43 270.50,499.57 C278.29,503.34 280.96,506.30 281.73,512.01 C282.54,518.06 278.95,524.21 268.58,534.54 C258.24,544.84 247.93,552.01 233.50,558.95 C210.70,569.92 196.53,573.93 178.00,574.64 C166.25,575.10 165.19,574.98 160.38,572.67 ZM 298.00 534.40 C291.78,532.12 289.57,528.59 290.66,522.70 C292.41,513.29 304.48,498.72 316.44,491.56 C328.81,484.15 336.70,489.21 329.12,499.68 C323.61,507.28 309.05,515.97 301.79,515.99 C297.59,516.00 296.44,517.39 295.43,523.70 C294.60,528.89 296.61,531.01 302.32,530.98 C309.67,530.93 321.48,525.02 338.50,512.86 C350.03,504.63 354.29,500.14 365.44,484.47 C377.17,467.97 394.70,444.45 400.25,437.75 C402.95,434.49 404.94,433.00 406.59,433.00 C410.97,433.00 409.29,436.55 399.18,448.70 C379.49,472.35 356.19,503.93 353.26,510.92 C351.92,514.14 352.26,513.95 358.91,507.79 C366.24,501.00 377.27,493.74 383.76,491.42 C385.82,490.69 389.88,490.07 392.80,490.04 C397.18,490.01 398.53,490.44 400.66,492.57 C402.84,494.75 403.14,495.73 402.62,498.98 C402.28,501.10 401.70,503.61 401.33,504.57 C400.77,506.04 401.05,506.20 403.08,505.58 C404.41,505.17 407.75,504.36 410.50,503.78 C413.75,503.10 416.73,501.60 419.00,499.51 C429.50,489.84 442.76,484.44 449.61,487.04 C452.69,488.21 456.00,491.27 456.00,492.95 C456.00,493.52 454.01,497.09 451.57,500.89 C440.24,518.57 440.74,524.72 452.98,518.51 C460.59,514.65 478.87,499.33 482.10,494.10 C482.99,492.67 484.97,490.25 486.52,488.72 C490.11,485.17 503.42,478.56 505.43,479.34 C508.02,480.33 506.01,483.07 501.19,485.13 C495.05,487.77 487.24,493.64 485.56,496.89 C484.05,499.80 484.31,500.63 488.72,507.20 L 491.20 510.90 L 512.85 499.81 C524.76,493.71 535.31,488.17 536.30,487.48 C537.29,486.80 541.27,482.25 545.16,477.37 C549.04,472.49 553.96,466.60 556.11,464.27 C558.25,461.95 560.00,459.52 560.00,458.89 C560.00,458.03 555.39,457.90 542.25,458.39 C519.87,459.22 504.93,460.04 503.00,460.56 C500.80,461.14 498.27,459.33 499.53,458.07 C500.10,457.50 514.83,456.27 532.86,455.29 L 565.18 453.53 L 571.72 446.21 C576.42,440.97 578.85,438.98 580.31,439.20 C583.78,439.71 583.32,441.75 578.57,446.82 C576.06,449.51 574.00,452.11 574.00,452.60 C574.00,453.12 585.64,453.37 601.29,453.19 C632.26,452.84 638.34,453.41 638.81,456.70 C639.01,458.08 638.37,459.27 637.04,459.98 C634.75,461.21 633.00,460.60 633.00,458.57 C633.00,456.30 625.72,455.91 596.80,456.63 L 568.84 457.32 L 562.67 464.33 C559.28,468.18 553.58,474.55 550.00,478.47 C546.42,482.39 540.13,490.08 536.00,495.55 C522.00,514.12 519.00,519.13 519.00,523.89 C519.00,527.49 517.90,528.38 515.55,526.66 C514.07,525.58 513.96,524.80 514.83,521.67 C515.91,517.73 520.91,508.73 526.54,500.55 C528.41,497.84 529.82,495.49 529.67,495.34 C529.45,495.11 504.05,508.23 494.90,513.29 C493.10,514.29 492.12,515.85 491.71,518.38 C490.83,523.85 487.64,527.53 480.82,530.93 C474.44,534.12 468.30,534.90 466.20,532.80 C462.50,529.10 467.83,522.80 479.61,516.95 C483.12,515.20 486.00,513.60 486.00,513.38 C486.00,513.08 481.34,503.91 480.26,502.09 C480.12,501.87 477.42,504.13 474.26,507.13 C466.59,514.38 456.85,521.75 452.55,523.54 C450.63,524.34 447.26,525.00 445.06,525.00 C441.88,525.00 440.70,524.48 439.40,522.49 C437.80,520.05 437.83,518.52 439.60,511.47 C440.23,508.96 439.47,509.35 430.92,515.95 C415.48,527.89 407.80,530.68 404.46,525.58 C402.44,522.50 403.85,516.52 407.65,512.00 C409.08,510.30 409.99,508.66 409.68,508.34 C408.54,507.21 395.05,512.03 394.04,513.93 C392.26,517.26 379.72,525.90 372.84,528.55 C367.83,530.47 364.74,531.03 360.34,530.80 C354.55,530.50 354.50,530.47 354.19,527.24 C353.55,520.67 360.83,516.50 382.50,510.99 C395.11,507.79 397.26,506.03 397.41,498.80 L 397.50 494.50 L 391.62 494.20 C386.95,493.96 384.68,494.41 380.61,496.40 C370.56,501.32 357.68,512.36 348.78,523.68 C343.60,530.28 341.38,532.05 339.25,531.28 C337.17,530.53 337.84,527.85 342.04,520.13 C344.25,516.08 345.47,512.99 344.76,513.26 C344.04,513.54 339.86,516.36 335.47,519.53 C321.30,529.78 304.05,536.63 298.00,534.40 ZM 478.84 526.92 C483.25,524.72 485.18,523.14 485.62,521.38 C485.96,520.02 486.06,518.72 485.83,518.50 C485.21,517.88 473.76,525.40 471.60,527.85 C468.81,530.99 471.34,530.67 478.84,526.92 ZM 366.07 526.41 C374.25,524.02 392.40,513.02 388.19,513.00 C385.99,513.00 368.69,518.15 365.50,519.77 C360.95,522.07 357.51,526.07 359.17,527.12 C359.90,527.59 360.53,527.98 360.57,527.98 C360.61,527.99 363.08,527.29 366.07,526.41 ZM 418.40 519.56 C424.24,516.28 434.90,508.05 445.42,498.71 C451.51,493.31 451.29,491.00 444.69,491.00 C437.95,491.00 429.50,495.79 420.57,504.66 C410.82,514.35 406.14,523.00 410.65,523.00 C411.56,523.00 415.05,521.45 418.40,519.56 ZM 310.50 509.16 C316.59,506.27 323.85,500.23 325.84,496.38 C330.28,487.77 311.35,498.85 303.85,509.25 C301.26,512.84 302.77,512.82 310.50,509.16 ZM 770.67 530.33 C770.30,529.97 770.00,528.90 770.00,527.97 C770.00,526.38 776.76,512.58 783.69,500.00 C791.08,486.58 808.18,452.84 807.78,452.45 C807.54,452.21 806.03,453.76 804.42,455.90 C802.82,458.03 796.28,466.24 789.90,474.14 C783.51,482.04 774.59,493.45 770.07,499.50 C762.05,510.24 758.13,513.53 755.95,511.35 C754.74,510.14 757.06,497.90 762.31,477.75 C764.14,470.74 765.50,465.00 765.34,465.00 C764.97,465.00 754.13,481.68 747.46,492.50 C744.75,496.90 739.36,506.80 735.49,514.49 C730.73,523.97 727.85,528.60 726.59,528.84 C724.93,529.16 724.78,528.71 725.25,524.85 C725.64,521.57 728.78,515.59 738.04,500.50 C744.78,489.50 753.79,474.65 758.05,467.50 C762.31,460.35 767.00,453.20 768.47,451.61 C770.81,449.09 771.34,448.91 772.60,450.17 C773.86,451.43 773.84,452.18 772.47,456.06 C770.47,461.67 762.50,493.09 761.63,498.75 C761.27,501.09 761.38,503.00 761.87,503.00 C762.36,503.00 764.02,501.31 765.56,499.25 C773.20,489.00 789.11,468.70 794.47,462.36 C797.79,458.43 804.23,450.67 808.79,445.11 C813.35,439.55 817.68,435.00 818.42,435.00 C820.32,435.00 822.14,437.45 821.07,438.57 C818.76,441.01 779.91,516.63 777.45,523.50 C776.46,526.25 775.23,529.06 774.71,529.75 C773.67,531.11 771.72,531.39 770.67,530.33 ZM 811.05 527.98 C805.55,526.69 803.73,522.89 806.11,517.66 C807.20,515.26 811.53,512.20 812.48,513.15 C812.75,513.42 812.08,515.38 811.00,517.50 C809.16,521.10 809.14,521.50 810.67,523.19 C815.43,528.45 836.62,522.49 849.55,512.26 C863.46,501.25 863.09,491.80 848.60,487.89 C842.53,486.26 826.35,487.24 821.73,489.52 C818.30,491.22 817.82,491.25 816.38,489.81 C814.20,487.63 816.05,484.37 819.94,483.51 C822.26,483.00 824.24,480.89 829.12,473.68 C832.54,468.63 837.10,461.91 839.26,458.75 C841.73,455.11 843.87,453.00 845.08,453.00 C846.14,453.00 847.00,453.34 846.99,453.75 C846.99,454.82 844.20,458.92 838.90,465.66 C832.70,473.54 828.73,480.00 830.09,480.00 C832.22,480.00 847.56,472.31 856.62,466.69 C872.88,456.62 880.49,448.05 876.61,444.18 C875.25,442.83 873.10,442.52 865.71,442.60 C855.79,442.71 845.03,445.61 836.08,450.59 C833.05,452.28 831.33,452.73 830.63,452.03 C829.07,450.47 830.69,449.34 840.72,445.02 C849.64,441.17 862.81,438.00 869.86,438.00 C877.62,438.00 883.16,443.25 881.67,449.19 C880.07,455.54 862.67,469.53 845.50,478.27 L 839.50 481.32 L 847.03 482.94 C856.10,484.90 861.24,487.87 863.39,492.42 C865.49,496.84 865.42,498.50 862.93,503.65 C858.42,512.95 843.24,523.23 828.39,527.03 C820.25,529.11 816.67,529.31 811.05,527.98 ZM 699.57 525.43 C697.62,523.48 697.62,522.99 699.56,520.22 C701.46,517.50 704.58,517.34 705.94,519.89 C706.72,521.35 706.48,522.39 704.91,524.39 C702.52,527.42 701.72,527.58 699.57,525.43 ZM 544.00 524.71 C538.70,522.05 540.57,512.89 549.03,500.10 C556.74,488.42 559.62,485.44 561.58,487.07 C563.53,488.68 563.16,489.53 556.61,498.23 C545.96,512.40 542.95,521.00 548.65,521.00 C553.96,521.00 570.40,510.81 576.64,503.65 C581.56,498.01 593.30,489.51 598.92,487.53 C601.30,486.69 605.64,486.00 608.55,486.00 C613.09,486.00 614.15,486.38 615.93,488.63 C618.64,492.08 618.56,492.93 615.06,497.76 C610.91,503.48 606.00,512.93 606.00,515.17 C606.00,523.19 622.23,512.84 641.22,492.70 C648.49,485.00 649.04,484.62 650.64,486.21 C652.24,487.81 652.11,488.25 648.42,493.58 C642.27,502.49 640.41,505.63 642.04,504.39 C658.84,491.62 666.70,487.00 671.67,487.00 C674.39,487.00 675.24,487.51 676.04,489.62 C676.87,491.80 676.38,493.67 673.08,500.87 C667.50,513.04 667.20,514.68 670.30,516.09 C674.68,518.09 683.11,514.43 695.74,505.05 C700.02,501.87 701.13,503.21 697.43,507.10 C691.38,513.45 680.39,519.71 673.69,520.63 C667.95,521.42 663.80,518.20 663.80,512.97 C663.81,509.30 666.17,502.50 669.19,497.50 C671.06,494.39 671.59,491.00 670.20,491.00 C666.75,491.00 644.37,507.67 634.29,517.75 C629.36,522.68 624.98,524.57 625.01,521.75 C625.02,521.06 626.34,517.90 627.95,514.73 C631.13,508.47 630.95,508.46 623.50,514.34 C610.97,524.24 599.93,524.60 601.29,515.07 C601.57,513.11 602.14,510.67 602.55,509.65 C602.99,508.55 599.27,510.70 593.40,514.93 C587.79,518.97 581.26,522.76 578.32,523.69 C573.46,525.22 572.97,525.21 570.47,523.57 C568.35,522.18 567.89,521.22 568.23,518.91 C568.46,517.31 568.52,516.00 568.35,516.00 C568.18,516.00 565.53,517.60 562.47,519.56 C557.19,522.94 550.08,526.02 547.62,525.99 C547.01,525.98 545.38,525.40 544.00,524.71 ZM 582.59 517.02 C588.28,514.15 591.35,511.85 605.15,500.09 C612.91,493.47 613.57,490.65 607.48,490.20 C602.88,489.87 594.26,493.95 587.50,499.66 C580.76,505.37 574.00,514.16 574.00,517.23 C574.00,520.76 575.23,520.73 582.59,517.02 ZM 580.46 474.94 C579.37,473.18 580.90,469.13 583.09,467.95 C587.64,465.51 589.87,470.13 586.00,474.00 C583.81,476.19 581.48,476.59 580.46,474.94 Z" fill="rgba(0,0,0,1)"/>
</g>
</svg>