<svg xmlns="http://www.w3.org/2000/svg" width="840" height="779" viewBox="45 0 660 779">
    <g>
    <path d="M 45.50 777.53 C24.04,772.82 7.34,756.53 1.89,735.00 C-0.17,726.85 -0.20,52.30 1.87,44.00 C7.16,22.71 24.42,5.99 45.75,1.46 C51.53,0.24 101.27,0.03 390.09,0.02 C723.04,0.00 727.79,0.03 735.40,1.98 C739.65,3.06 745.91,5.41 749.31,7.20 C757.29,11.38 768.60,22.66 772.75,30.58 C779.53,43.51 779.00,13.10 779.00,389.50 C779.00,688.35 778.82,731.29 777.51,736.30 C772.73,754.64 759.34,768.59 739.02,776.38 L 733.50 778.50 L 392.50 778.67 C113.46,778.82 50.41,778.61 45.50,777.53 ZM 231.00 477.50 L 231.00 292.00 L 173.50 292.00 L 116.00 292.00 L 116.00 477.50 L 116.00 663.00 L 173.50 663.00 L 231.00 663.00 L 231.00 477.50 ZM 419.00 565.75 C419.00,508.06 419.41,464.03 420.01,457.50 C423.82,416.15 438.12,394.51 466.69,386.86 C476.24,384.30 496.47,383.78 505.00,385.88 C523.86,390.52 536.32,402.62 542.54,422.33 C548.45,441.02 548.35,438.96 548.75,555.75 L 549.11 663.00 L 606.62 663.00 L 664.14 663.00 L 663.71 543.75 C663.25,418.54 663.10,413.93 658.55,389.93 C649.56,342.56 630.58,313.80 597.29,297.12 C566.29,281.59 513.12,278.66 479.77,290.64 C455.94,299.20 433.92,315.86 422.00,334.34 C418.98,339.03 415.94,342.90 415.25,342.94 C414.28,342.99 414.00,337.27 414.00,317.50 L 414.00 292.00 L 359.00 292.00 L 304.00 292.00 L 304.00 477.50 L 304.00 663.00 L 361.50 663.00 L 419.00 663.00 L 419.00 565.75 ZM 194.83 237.70 C205.47,233.99 212.49,229.50 221.12,220.91 C229.47,212.60 235.63,201.83 238.49,190.54 C240.43,182.89 240.42,166.39 238.47,158.11 C233.18,135.69 213.36,115.85 190.39,109.97 C181.06,107.59 167.21,107.39 158.18,109.52 C144.28,112.80 129.87,122.11 121.42,133.28 C105.49,154.33 102.75,180.22 113.99,203.50 C122.57,221.27 140.04,235.25 159.00,239.51 C169.03,241.76 185.60,240.93 194.83,237.70 ZM 812.13 667.55 C798.73,663.22 793.75,646.50 802.37,634.74 C804.98,631.18 813.40,627.00 817.95,627.01 C828.14,627.02 836.72,633.48 838.96,642.84 C842.77,658.71 827.69,672.59 812.13,667.55 ZM 827.16 663.42 C834.06,659.85 837.73,649.76 835.06,641.68 C833.54,637.09 827.10,631.30 822.56,630.45 C811.09,628.29 801.44,636.43 801.60,648.12 C801.79,661.82 814.98,669.72 827.16,663.42 ZM 811.67 658.33 C811.30,657.97 811.00,653.02 811.00,647.33 L 811.00 637.00 L 817.98 637.00 C824.37,637.00 825.09,637.22 826.64,639.58 C828.71,642.73 827.60,646.89 824.26,648.56 C823.04,649.17 822.42,650.07 822.87,650.58 C823.31,651.09 824.69,653.19 825.92,655.25 C828.00,658.73 828.03,659.00 826.33,658.98 C825.25,658.97 823.17,656.93 821.24,653.98 C816.94,647.40 815.00,647.40 815.00,654.00 C815.00,657.50 814.60,659.00 813.67,659.00 C812.93,659.00 812.03,658.70 811.67,658.33 ZM 821.50 646.00 C823.45,645.26 824.06,644.41 823.82,642.75 C823.55,640.88 822.78,640.45 819.25,640.19 L 815.00 639.89 L 815.00 643.44 C815.00,647.35 816.45,647.92 821.50,646.00 Z" fill="rgba(255,255,255,1)"/>
    </g>
</svg>