<svg xmlns="http://www.w3.org/2000/svg" xml:space="preserve" viewBox="0 27 512 460">
<path d="M513 153.542c-14.032 6.674-15.464 19.374-16.72 32.376-1.268 13.12-.114 26.302-1.103 39.367-1.334 17.624-2.797 35.385-9.442 52.059-5.768 14.476-23.103 19.342-36.049 10.438-.663-.456-1.42-.776-2.597-1.409-2.526 7.557-4.656 14.983-7.461 22.144-11.792 30.1-30.309 55.13-56.986 73.69-5.326 3.705-10.634 6.965-13.93 12.936-3.1 5.616-8.285 9.426-13.644 12.867-2.396 1.539-4.533 3.263-5.68 6.068-9.371 22.911-26.172 38.338-48.668 47.903-1.8.765-2.991 1.772-4.099 3.315-18.19 25.35-55.928 27.655-76.067 3.821-5.457-6.458-12.4-8.904-18.919-12.758-16.524-9.77-28.854-23.166-36.325-40.91-1.264-3.002-3.04-5.345-5.914-7.1-7.346-4.487-13.503-10.236-17.24-18.168-1.507-3.196-4.746-4.085-7.322-5.724-21.523-13.691-37.613-32.286-50.198-54.273-7.881-13.769-13.152-28.499-17.392-44.02-3.27 1.439-5.682 3.766-8.932 4.71-14.299 4.157-27.367-2.811-31.538-17.055-3.969-13.557-5.835-27.441-7.294-41.475-1.195-11.49-.088-22.956-.924-34.38-.721-9.866-.525-19.897-3.946-29.442-2.31-6.444-5.86-11.544-13.253-13.437-.357-4.774-.357-9.464-.053-14.782 1.637-1.64 1.64-3.29 2.04-4.66 4.051-13.897 9.008-27.445 15.462-40.412 11.016-22.13 24.631-42.109 46.147-55.54 16.07-10.03 33.536-12.945 52.066-10.257 15.734 2.283 30.477 7.712 44.827 14.4 8.869 4.132 18.192 5.226 27.638 2.365 25.019-7.58 50.561-10.423 76.657-9.626 16.997.52 33.72 2.668 49.934 7.595 14.133 4.294 27.226 4.116 40.95-2.449 17.903-8.563 36.851-14.25 57.196-13.086 11.641.667 22.476 3.988 32.529 9.723 20.8 11.866 34.291 30.361 45.41 50.89C501.38 106.27 507.432 124.546 513 143zm-32.349 20.94c1.21-9.598 4.213-18.715 10.807-25.755 3.709-3.96 3.603-7.198 2.1-11.524-5.614-16.163-11.604-32.149-20.388-46.938-8.76-14.748-19.381-27.788-34.258-36.773-15.615-9.43-32.278-10.345-49.446-5.207-4.536 1.357-9.564 1.651-13.822 5.105 2.448 1.536 4.421 2.742 6.363 3.998 4.115 2.66 7.134 6.496 10.325 10.079 2.264 2.543 1.02 8.697-1.703 10.926-3.402 2.783-8.68 2.479-12.643-1.507-5.625-5.657-12.313-9.521-19.289-13.12-3.132-1.615-6.297-2.239-9.552-1.195-10.394 3.334-20.722 2.196-30.9-.583-14.571-3.979-29.293-7.602-44.323-8.424-23.426-1.28-46.804-.312-69.633 6.248-12.315 3.538-24.777 6.406-37.72 3.472-2.863-.65-5.651-2.07-8.663-.7-6.814 3.104-13.392 6.531-19.086 11.559-13.434 11.86-20.12 27.472-24.42 44.243-6.928 27.016-8.761 54.877-13.051 82.334-3.439 22.007-7.769 43.775-18.578 63.644-.876 1.61-1.624 3.27-1.288 5.224 2.533 14.768 6.452 29.073 13.03 42.642 6.197 12.783 13.746 24.684 23.235 35.164 5.349 5.906 10.464 12.43 18.272 16.035.523-1.02 1.097-1.704 1.233-2.466 2.032-11.409 8.683-19.896 17.092-27.313 4.198-3.703 8.78-3.792 12.388-.106 3.454 3.529 3.373 7.884-.322 11.996-1.557 1.734-3.301 3.297-4.91 4.985-9.132 9.578-10.619 22.189-3.996 32.36 4.989 7.662 12.004 13.016 20.225 16.323 21.64 8.704 42.843 7.889 62.799-4.994 10.978-7.088 21.747-7.603 32.514-.1 21.675 15.102 56.298 14.271 76.676-3.41 9.585-8.315 15.254-22.062 6.7-35.094-8.77-13.362-22.21-18.74-37.313-21.304-4.893-.83-8.007-.196-9.558 5.118-.867 2.972-3.268 5.32-5.513 7.597-7.988 8.107-18.081 12.718-28.15 17.487-10.718 5.075-21.635 6.042-32.73 2.01-8.573-3.116-16.828-7.088-24.401-12.236-6.222-4.229-12.087-9.01-14.986-16.245-1.394-3.476-2.955-5.314-6.892-3.78-1.016.397-2.312.127-3.476.085-5.338-.195-8.607-3.303-8.708-8.242-.1-4.9 3.13-7.925 8.46-8.508 3.548-.388 7.729.621 9.687-4.13 3.9-9.46 10.782-16.303 19.829-20.843 17.513-8.788 35.967-10.112 54.689-5.269 14.384 3.721 27.069 10.52 33.226 25.225 1.491 3.563 3.804 5.043 7.1 4.972 5.772-.124 11.209 1.298 16.578 2.993 20.548 6.485 36.793 17.617 42.527 39.943.253.982.291 2.423 2.369 2.857 7.252-5.267 13.548-11.953 19.598-19.071 15.822-18.615 26.088-39.882 31.64-63.548 1.879-8.003 2.399-15.492-2.383-23.255-4.116-6.682-6.276-14.575-8.358-22.288-6.191-22.928-8.764-46.474-11.89-69.912-2.783-20.863-5.56-41.686-12.75-61.634-.639-1.77-1.468-3.726-.946-5.804.951-3.79 3.185-6.195 7.207-6.463 3.917-.26 7.178.838 8.854 4.832 4.456 10.616 7.003 21.775 9.18 33.009 5.197 26.81 6.979 54.136 12.033 80.968 4.052 21.514 10.008 42.26 24.313 59.665 2.583 3.144 5.04 5.761 9.337 5.174 4.696-.641 5.648-4.446 6.646-8.27 5.315-20.37 7.585-41.061 7.052-62.101-.248-9.8.643-19.558 1.961-30.16M39.846 92.217c-8.66 15.04-14.961 31.076-20.13 47.593-.9 2.877-.875 5.309 1.863 7.473 2.763 2.183 4.206 5.508 5.903 8.552 7.243 13.003 6.702 27.508 7.78 41.636.847 11.087-.235 22.221.895 33.378 1.29 12.735 3.446 25.23 6.596 37.597.901 3.536 2.975 5.997 6.621 6.618 3.276.558 5.83-1.278 7.74-3.61 7.078-8.648 12.626-18.201 16.677-28.653 8.967-23.134 11.435-47.615 14.716-71.877 2.865-21.183 5.111-42.452 11.27-63.01 5.064-16.904 12.42-32.524 25.735-44.825 3.945-3.645 8.467-6.566 12.928-10.438-7.93-3.11-15.422-5.024-23.101-6.387-11.947-2.121-23.362-.953-34.426 4.293-18.547 8.794-30.75 23.765-41.067 41.66m177.578 233.937c1.44 5.802 5.01 9.932 9.931 13.173 6.415 4.225 13.273 7.6 20.188 10.858 3.144 1.48 6.784 2.68 10.093 2.06 13.199-2.476 24.694-8.782 34.535-17.736 5.234-4.76 5.77-11.633 2.172-16.764-2.28-3.25-4.995-6.27-8.52-8.287-19.237-11.013-38.632-10.957-57.713.064-5.78 3.34-10.362 8.4-10.686 16.632m47.952 87.286c-.01 4.665.01 9.33-.034 13.996-.063 6.689-2.82 9.909-8.4 9.891-5.52-.017-8.227-3.262-8.27-10.007-.036-5.567-.008-11.134-.008-17.185-7.152 3.476-13.451 6.83-20.467 8.432-2.065.471-2.906 1.92-2.86 4.072.086 3.997.01 7.997.013 11.996.01 12.46 4.568 22.271 15.417 29.289 16.628 10.756 40.524 1.925 46.146-16.996 2.46-8.275 1.287-16.49 1.717-24.735.106-2.017-1.127-3.125-2.872-3.556-6.01-1.483-11.542-4.128-17.09-6.768-1.156-.55-2.84-2.025-3.292 1.571m40.117 24.674c.738 1.636 1.836 1.067 2.842.39 7.28-4.892 13.729-10.61 18.695-18.714-5.838 1.456-11.126 1.94-16.431 1.517-4.316-.344-5.586 1.585-5.296 5.58.253 3.479.076 6.99.19 11.227m-116.746-15.689c5.21 6.861 11.244 12.766 19.407 17.257.863-5.764.498-10.855.375-15.921-.055-2.261-1.896-2.37-3.64-2.397-4.953-.079-9.933.34-14.824-.945-.943-.248-2.683-.688-1.318 2.006"/><path d="M138.508 245.055c-2.502-15.86-4.923-31.568 2.7-46.155 6.322-12.096 17.294-17.915 30.969-18.197 5.671-.116 8.637 2.613 9.075 7.755.343 4.026-3.251 8.061-7.857 8.82-15 2.47-20.043 8.446-20.045 23.75 0 3.662.27 7.349-.05 10.983-1.044 11.806 11.062 20.516 19.454 20.62 10.068.123 19.86-9.791 19.842-20.426-.013-8.247 1.07-16.577-2.168-24.642-1.755-4.369.813-9.171 4.836-10.539 4.385-1.491 9.254.767 11.108 5.132 1.442 3.394 2.21 7.005 2.418 10.61.724 12.546 2.28 25.198-3.77 37.096-9.938 19.55-36.291 25.63-53.784 12.434-5.868-4.427-9.942-10.086-12.728-17.241M329.962 267.491c-16.905-5.92-25.395-19.69-25.262-36.474.055-6.963-.316-13.903.812-20.899 2.636-16.357 18.56-30.018 35.03-29.45 5.125.177 8.454 2.828 8.781 6.994.432 5.49-2.124 8.929-7.806 9.542-5.888.636-10.834 2.717-14.903 7.093-1.876 2.017-3.536 4.257-4.015 6.796-1.825 9.67-2.788 19.484.632 28.971 2.909 8.07 12.788 13.823 20.157 12.417 10.036-1.916 17.316-9.981 17.207-19.648-.095-8.43.87-16.87-1.678-25.269-1.704-5.617.87-9.62 5.305-10.762 4.744-1.22 8.491 1.12 10.625 6.643 1.628 4.216 2.555 8.556 2.515 13.105-.053 5.998.005 11.998-.016 17.997-.057 15.759-12.51 30.72-27.871 33.802-6.487 1.302-12.82 1.37-19.513-.858"/>
</svg>