<svg version="1.1" id="Layer_1" xmlns="http://www.w3.org/2000/svg" xmlns:xlink="http://www.w3.org/1999/xlink" x="0px" y="0px"
	 width="100%" viewBox="0 0 1024 512" enable-background="new 0 0 1024 512" xml:space="preserve">
<path fill="#000000" opacity="1.000000" stroke="none" 
	d="
M404.685883,246.701233 
	C412.641693,237.474442 420.325989,228.482391 428.110840,219.578247 
	C429.166138,218.371262 429.662292,217.113419 430.002563,215.630630 
	C433.016876,202.495407 435.964203,189.343079 439.179108,176.256699 
	C440.150452,172.302994 438.922852,171.117416 435.111511,171.236206 
	C421.793762,171.651199 408.471954,171.937363 395.151245,172.254379 
	C393.153168,172.301941 391.151672,172.292816 389.153778,172.237228 
	C387.070923,172.179276 385.567688,171.178528 385.327576,169.045883 
	C385.073608,166.790359 386.595062,165.729111 388.575012,165.347778 
	C389.874115,165.097565 391.218933,165.024261 392.546295,164.990311 
	C407.200806,164.615372 421.855286,164.068039 436.511169,164.024323 
	C440.939423,164.011108 442.668793,162.365051 443.578278,158.318665 
	C445.402191,150.203949 447.564941,142.163300 449.698639,134.121490 
	C450.367493,131.600571 451.052734,128.268738 454.660248,129.330063 
	C458.198181,130.370911 457.071960,133.436020 456.383698,136.072021 
	C454.450134,143.477478 452.572021,150.897552 450.702606,158.319565 
	C450.306152,159.893509 449.573792,161.460403 450.417145,163.622742 
	C454.890076,163.622742 459.515778,163.794144 464.125366,163.593719 
	C486.775299,162.608856 509.433624,162.825165 532.090820,163.037018 
	C537.578613,163.088333 543.096924,163.333038 548.434631,164.827240 
	C550.527222,165.413025 552.110657,166.769989 551.592773,169.192505 
	C551.129517,171.359512 549.465332,171.924194 547.355042,171.605972 
	C529.291199,168.882019 511.103882,170.298599 492.971771,170.154846 
	C479.484894,170.047913 465.993317,170.740524 452.502075,170.842407 
	C448.817078,170.870239 447.160004,172.330719 446.356018,175.797928 
	C434.517181,226.855804 423.389801,278.059692 414.521790,329.730499 
	C414.162781,331.822296 413.729675,334.105774 415.132812,336.034332 
	C416.808289,338.337219 415.914581,340.450500 414.912018,342.604645 
	C413.815887,344.959839 412.549622,347.319916 409.396698,346.476318 
	C406.546875,345.713898 406.412872,343.205750 406.536072,340.786743 
	C407.275116,326.276733 410.325378,312.105560 413.092133,297.913910 
	C417.004852,277.844025 421.294678,257.847748 425.402618,237.815781 
	C425.626312,236.724945 426.027588,235.575562 424.908813,233.992004 
	C418.128052,241.908707 411.457397,249.692413 404.793732,257.482086 
	C403.927673,258.494507 403.151917,259.588684 402.241760,260.558075 
	C397.929321,265.150879 395.180603,269.802246 396.030090,276.891479 
	C397.317841,287.638519 392.920593,297.104004 385.959259,305.283813 
	C383.673340,307.969818 381.008759,310.250824 377.592560,311.411194 
	C372.513489,313.136383 368.978241,310.730499 368.686066,305.428131 
	C368.418365,300.569916 370.366333,296.291718 372.358215,292.087799 
	C375.865326,284.685883 380.329315,277.830322 385.241302,271.304138 
	C387.325684,268.534760 387.553741,266.155762 385.950806,263.124176 
	C381.124237,253.995895 374.603943,245.859406 370.705688,236.297150 
	C368.454041,236.427551 368.300964,238.237625 367.551300,239.371231 
	C364.330505,244.241226 361.065582,249.049377 356.761658,253.078690 
	C347.868164,261.404724 339.419495,259.482788 335.319489,247.927673 
	C333.775879,243.577271 332.908905,238.986771 331.613251,234.047379 
	C328.030151,236.700134 326.128754,240.411636 323.405121,243.359177 
	C322.387421,244.460480 321.349762,245.544250 320.296295,246.611404 
	C317.709381,249.232056 315.117645,252.369858 310.929260,250.890762 
	C306.928284,249.477829 307.034576,245.505661 306.546631,241.388977 
	C300.814850,245.748825 296.078735,250.776108 290.344391,254.537338 
	C279.740112,261.492828 268.985504,268.111572 256.430481,270.984863 
	C255.047989,271.301239 254.415878,271.920746 254.007050,273.078400 
	C253.397552,274.804169 252.831879,276.546448 252.179962,278.255920 
	C251.295807,280.574432 250.600311,283.575592 247.317184,282.854767 
	C243.616196,282.042114 244.500092,278.760132 244.924438,276.240723 
	C245.863388,270.666107 247.053131,265.132324 248.207214,259.595764 
	C249.526291,253.267700 250.917633,246.954712 251.952133,240.378540 
	C246.930328,245.624512 242.103134,250.988235 236.397202,255.443695 
	C233.364685,257.811646 230.349319,260.153259 226.652771,261.401703 
	C217.301544,264.559814 209.638351,259.841309 207.684174,250.153427 
	C206.468216,244.125259 207.746124,238.261292 208.070663,231.388367 
	C205.215591,233.357132 202.823822,234.917267 200.528275,236.608032 
	C195.833832,240.065689 191.364716,243.861023 186.485474,247.028427 
	C179.546921,251.532730 175.314072,256.142365 175.791794,265.904755 
	C176.319397,276.686188 170.548462,286.718262 164.754105,295.983124 
	C153.150085,314.537354 137.532318,328.632202 117.629662,337.862823 
	C112.753075,340.124512 107.696678,341.612335 102.205948,341.437256 
	C94.760368,341.199768 91.224205,336.802521 93.167107,329.535034 
	C95.427086,321.081512 100.806274,314.439880 106.446999,308.052368 
	C123.394348,288.861267 142.939941,272.498749 163.022583,256.775818 
	C166.884964,253.751907 166.827118,251.724564 163.579208,248.584930 
	C158.353317,243.533249 152.256729,239.845215 145.855865,236.581223 
	C132.925705,229.987747 119.376350,224.820053 105.968956,219.326569 
	C102.886688,218.063644 99.761864,216.894119 96.731140,215.517593 
	C79.650452,207.759659 75.224937,193.637161 84.928123,177.441101 
	C92.402000,164.966080 102.639503,154.951004 114.050819,146.150131 
	C133.858734,130.873444 155.105881,118.279945 179.701965,112.235352 
	C185.408478,110.832939 191.129990,110.053802 196.958115,111.792473 
	C203.939331,113.875153 208.607147,121.284706 206.987900,128.069839 
	C206.514816,130.052170 205.816772,132.163620 203.212585,131.908005 
	C200.995331,131.690399 200.456985,129.816635 200.155914,127.903282 
	C198.652176,118.347252 195.959671,116.519356 186.155701,117.891098 
	C170.996262,120.012154 157.509827,126.502647 144.475479,133.976410 
	C125.573669,144.814514 108.135162,157.538589 94.723724,175.059341 
	C91.680191,179.035416 89.019753,183.278671 87.598022,188.154800 
	C85.166664,196.493668 87.547729,202.948593 95.281250,207.058426 
	C106.915581,213.241272 119.452881,217.410065 131.522827,222.630508 
	C142.075836,227.194855 152.622314,231.744827 162.028290,238.532974 
	C165.947754,241.361572 169.387604,244.676804 172.779922,248.803024 
	C181.638458,242.243240 190.177063,235.921463 198.713806,229.597168 
	C199.516907,229.002182 200.259506,228.309448 201.112991,227.801102 
	C208.155670,223.606384 213.564011,218.186417 216.417999,210.173447 
	C218.207001,205.150604 221.609680,200.853836 225.829422,197.431046 
	C228.644516,195.147629 231.846100,193.194550 235.280243,195.971695 
	C238.413498,198.505539 237.600677,201.957336 236.260895,205.150208 
	C233.204376,212.434235 227.682938,217.866989 221.912796,222.880325 
	C213.573364,230.126022 213.538010,239.485275 214.883453,248.972778 
	C215.770142,255.225479 220.370758,256.936523 226.041855,253.923920 
	C233.555313,249.932587 238.653107,243.183243 244.696014,237.481537 
	C255.685165,227.112854 258.651642,213.471085 261.777466,199.570618 
	C266.737701,177.512665 271.022064,155.232758 279.611206,134.154068 
	C281.812653,128.751450 284.156067,123.379715 287.766602,118.743958 
	C289.751617,116.195274 291.797760,112.654701 295.789612,114.476997 
	C299.647156,116.237976 299.461273,119.959175 298.753143,123.610214 
	C296.414124,135.669754 291.237122,146.677826 286.205261,157.741638 
	C285.584961,159.105469 284.988586,160.503662 284.177246,161.753601 
	C272.673431,179.476700 268.385406,199.655075 264.260437,219.905487 
	C262.745148,227.344437 260.998566,234.736298 259.042114,243.574280 
	C263.013916,237.863510 265.824951,233.145996 269.590851,229.149765 
	C270.846405,227.817413 272.030853,226.391434 273.428711,225.225113 
	C276.594635,222.583649 280.165283,220.297318 284.336029,222.342072 
	C288.655731,224.459824 288.506775,228.804657 288.216187,232.861694 
	C287.782288,238.919632 284.749207,244.204697 282.312103,250.831848 
	C288.423584,247.848755 292.683899,243.994598 296.911926,240.232590 
	C303.795044,234.108139 309.622620,227.061295 314.072479,218.925049 
	C316.406189,214.658096 319.136566,210.693268 323.382111,208.022751 
	C329.210785,204.356415 336.041595,205.318283 340.548309,210.503601 
	C342.057556,212.240112 343.275818,214.163635 341.246582,216.200638 
	C339.411377,218.042816 337.682312,216.930695 335.956055,215.631210 
	C330.700195,211.674744 328.415833,211.739471 324.189789,216.749054 
	C318.248993,223.791229 315.268280,232.146194 314.077332,241.247162 
	C316.179840,241.938248 316.722992,240.399460 317.435669,239.497360 
	C321.564545,234.271057 325.586334,228.960403 329.682343,223.707870 
	C331.178650,221.789062 332.378235,219.079575 335.508118,219.964401 
	C338.690552,220.864075 338.078796,223.750793 338.347107,226.197754 
	C339.053101,232.636124 339.505981,239.136993 341.759735,245.293289 
	C344.061462,251.580719 347.367462,252.617355 352.011261,247.882675 
	C360.160339,239.574142 365.982574,229.701279 369.753998,218.669586 
	C372.804474,209.746765 379.168488,204.847778 388.267883,203.203461 
	C390.617645,202.778839 392.948181,203.046631 395.174774,203.802292 
	C397.458740,204.577423 399.847900,205.706497 398.931793,208.692413 
	C398.116119,211.350861 395.840851,210.970276 393.523956,210.597717 
	C382.201050,208.777023 373.384979,218.518341 376.165405,229.760071 
	C376.759521,232.162292 377.678040,234.519440 378.724426,236.768326 
	C382.529327,244.945847 388.061584,252.079239 392.893982,260.532318 
	C396.979797,255.733261 400.712891,251.348450 404.685883,246.701233 
M149.129272,276.654816 
	C132.830963,290.607147 116.421158,304.464996 104.087875,322.306488 
	C101.793907,325.624969 97.668938,329.847321 100.174065,333.302032 
	C103.009232,337.211884 108.333023,334.376404 112.078148,332.681793 
	C140.862122,319.657196 161.066513,298.963165 169.169754,267.707916 
	C169.741913,265.501007 170.063217,263.287109 168.952927,260.421082 
	C162.219650,265.921844 155.940491,271.051666 149.129272,276.654816 
M266.342102,245.833054 
	C263.506134,251.039764 260.615509,256.221832 258.668121,262.099731 
	C269.751007,259.286011 282.742157,239.905151 280.691742,229.719025 
	C276.203186,231.533356 272.682800,235.433594 266.342102,245.833054 
M389.113373,280.288513 
	C389.178925,279.811401 389.320587,279.286530 388.606110,279.189758 
	C388.484406,279.173248 388.285797,279.301636 388.211578,279.419189 
	C385.565369,283.612122 382.788635,287.731384 380.336060,292.035248 
	C378.276337,295.649689 376.245483,299.361237 375.723633,304.986664 
	C384.099518,298.101105 388.105652,290.360016 389.113373,280.288513 
M289.370361,129.150742 
	C286.715210,135.849442 284.060059,142.548141 281.404907,149.246841 
	C283.737091,145.802368 285.532806,142.119110 286.747528,138.253296 
	C287.737885,135.101578 290.274933,132.383423 289.370361,129.150742 
z"/>
<path fill="#000000" opacity="1.000000" stroke="none" 
	d="
M662.189087,300.379700 
	C670.847351,258.417816 680.595886,217.133087 689.964233,175.763092 
	C692.863770,162.959000 696.543823,150.308060 698.045288,137.212265 
	C698.498413,133.260483 699.475647,128.452728 695.827820,126.105713 
	C691.869141,123.558655 688.178650,127.168243 685.230469,129.632797 
	C665.609253,146.034973 651.955322,166.303879 646.701172,191.595840 
	C643.763245,205.738266 651.686279,215.347198 666.536255,216.723175 
	C669.543884,217.001846 674.472717,215.688583 673.982239,220.760818 
	C673.532776,225.410049 668.871460,223.360443 666.118713,223.238525 
	C647.273254,222.403854 636.030396,208.067154 640.268188,189.259644 
	C646.220764,162.841782 660.401428,141.270035 681.281311,124.118446 
	C683.564636,122.242790 686.276184,120.739670 689.010376,119.589890 
	C696.796082,116.315826 702.442261,119.473984 704.396240,127.624146 
	C706.221741,135.238678 704.413391,142.558334 702.788635,149.824051 
	C691.462341,200.473785 679.990112,251.090866 668.576782,301.721130 
	C668.549438,301.842377 668.699951,302.003723 668.914856,302.458313 
	C676.039856,278.622040 684.782593,255.619507 693.854797,232.754410 
	C702.333496,211.385315 711.259949,190.184860 722.862976,170.251816 
	C726.722229,163.622040 730.738403,157.067734 736.411194,151.780670 
	C743.910034,144.791687 750.679321,146.627686 753.381836,156.606171 
	C756.567444,168.368225 755.668152,180.404922 754.747009,192.347900 
	C753.879333,203.597900 752.523682,214.810272 751.797119,226.157867 
	C756.490540,213.582123 760.959656,200.917023 765.927368,188.450562 
	C774.445374,167.074234 783.652039,146.011276 796.832214,126.964714 
	C800.173401,122.136482 803.915039,117.659088 808.958008,114.518814 
	C815.147705,110.664421 820.412842,112.634834 822.451050,119.644600 
	C825.075989,128.672043 823.961182,137.921173 822.869812,146.936310 
	C817.188660,193.861237 807.399841,240.114349 799.618164,286.697998 
	C798.095032,295.815887 796.161316,304.969818 796.344238,314.622681 
	C798.940857,315.046875 802.335999,314.281708 802.177124,318.361450 
	C802.066528,321.201080 797.102051,326.941589 794.553955,326.878998 
	C790.914368,326.789703 789.966064,324.067932 789.659180,321.065369 
	C788.632446,311.020752 790.447815,301.146149 792.090515,291.359589 
	C799.383301,247.912369 807.169861,204.547607 814.361694,161.084152 
	C816.148315,150.286774 817.320496,139.299194 816.860107,128.262741 
	C816.736755,125.307137 816.956482,122.249863 814.677429,119.545341 
	C810.145508,120.276283 807.742920,123.786537 805.267334,126.991455 
	C795.212646,140.008224 788.029419,154.679291 781.191772,169.522003 
	C766.449707,201.523132 755.684082,234.966095 745.367920,268.572937 
	C744.552002,271.230896 744.561951,275.702454 740.523132,274.896118 
	C736.032776,273.999695 738.113220,269.948853 738.542603,266.990143 
	C741.814392,244.447800 745.722656,221.972961 747.407654,199.244049 
	C748.314941,187.007370 750.057190,174.697113 747.737610,162.390427 
	C747.244019,159.771622 746.890442,157.143021 744.803650,154.819016 
	C741.370178,155.230331 739.456177,157.877792 737.602112,160.291580 
	C728.917969,171.597321 722.610596,184.311081 716.592224,197.124298 
	C695.438232,242.160965 679.360718,289.079742 665.284607,336.727936 
	C664.295532,340.075867 663.178223,343.395721 661.917908,346.650146 
	C661.113037,348.728668 659.805664,350.728851 657.119446,350.029480 
	C654.311707,349.298523 653.894287,346.948669 654.173706,344.444916 
	C655.447632,333.030365 657.985657,321.834686 660.088806,310.564087 
	C660.698730,307.295532 661.397888,304.043640 662.189087,300.379700 
z"/>
<path fill="#000000" opacity="1.000000" stroke="none" 
	d="
M945.503906,201.561005 
	C940.921387,194.151932 934.765869,189.428024 926.762756,186.926193 
	C922.673828,185.647980 919.680786,186.322632 916.437134,189.379593 
	C903.026001,202.018845 888.408447,213.180847 871.025574,219.666733 
	C865.024780,221.905762 863.160217,225.049881 862.078186,230.794907 
	C856.785889,258.896515 851.093689,286.922913 846.614075,315.173309 
	C846.224365,317.631348 846.072571,320.127106 845.811462,322.594238 
	C851.869934,324.844208 852.139404,325.520172 849.361450,331.511871 
	C848.871338,332.568970 848.421875,333.657104 847.814331,334.645233 
	C846.343628,337.036957 844.998413,340.181427 841.474121,339.031799 
	C837.945557,337.880737 838.053894,334.398865 838.212524,331.428528 
	C838.852295,319.452301 840.848877,307.633545 843.012817,295.870056 
	C847.342896,272.331177 853.223389,248.999390 856.089233,225.295029 
	C858.206299,207.783981 864.420227,191.429291 866.958740,174.120911 
	C869.513123,156.704453 873.621155,139.515305 877.084412,122.233742 
	C877.375977,120.778862 877.936279,119.378517 876.944763,117.366508 
	C868.274536,119.156937 860.707764,123.166260 854.175232,128.846405 
	C841.534180,139.837997 837.567444,154.077087 839.744141,170.336975 
	C839.832031,170.993835 840.115540,171.630356 840.159119,172.286240 
	C840.314453,174.620132 840.757019,177.451828 837.622070,177.916107 
	C834.539917,178.372589 834.112244,175.701065 833.561523,173.324722 
	C827.947449,149.098557 840.479370,124.937889 864.151306,114.627022 
	C867.653137,113.101715 871.283569,111.844589 874.919617,110.664070 
	C877.354980,109.873383 879.468933,109.121719 880.582031,106.384689 
	C881.587097,103.913338 883.978027,103.260231 885.760254,105.386597 
	C887.713196,107.716652 889.976257,107.623360 892.490112,107.584198 
	C901.326782,107.446541 910.033020,107.770241 918.616455,110.616020 
	C938.915527,117.346107 947.484192,133.958008 940.626526,154.251663 
	C938.263428,161.244919 934.624146,167.598053 930.442444,173.652924 
	C929.228638,175.410416 928.040222,177.185379 927.047607,178.647003 
	C927.416077,180.388962 928.471375,180.489151 929.405579,180.812134 
	C946.190063,186.614807 957.008179,201.172394 957.260864,218.959152 
	C957.779846,255.498077 939.291016,280.585052 908.676147,297.915649 
	C895.480103,305.385742 880.986755,309.149597 865.894287,310.608215 
	C862.976685,310.890198 859.541138,311.574615 859.293579,307.602844 
	C859.071106,304.031891 862.618103,304.021179 865.226807,303.790314 
	C882.984070,302.218842 899.451233,296.894348 914.194092,286.761078 
	C933.611328,273.415009 946.153015,255.484329 950.060974,231.959976 
	C951.801880,221.480469 950.602173,211.402390 945.503906,201.561005 
M905.839722,114.633339 
	C901.181824,114.530716 896.522644,114.468460 891.866455,114.313980 
	C887.319641,114.163132 885.092651,116.061325 884.234863,120.788628 
	C881.564758,135.503372 878.414978,150.130737 875.484741,164.798691 
	C873.616882,174.148666 871.808167,183.510498 869.815674,193.668900 
	C883.680420,183.151596 898.400085,178.311646 914.784058,178.693817 
	C917.205139,178.750290 918.886108,177.754898 920.316284,175.934586 
	C926.004517,168.694748 931.018433,161.057465 934.111389,152.316284 
	C939.849609,136.099075 933.935120,123.516060 917.814453,117.604355 
	C914.217468,116.285301 910.524597,115.282341 905.839722,114.633339 
M890.265747,201.748734 
	C897.219238,197.053589 904.245972,192.447418 910.495667,185.486374 
	C894.934692,186.709534 881.808655,191.348190 871.135376,201.840942 
	C867.731262,205.187515 865.513550,209.053223 866.128784,214.409744 
	C874.769775,211.427811 882.285217,206.920517 890.265747,201.748734 
z"/>
<path fill="#000000" opacity="1.000000" stroke="none" 
	d="
M511.138153,254.934174 
	C505.716980,248.902618 505.603546,241.239716 503.255402,233.483459 
	C500.000336,237.431870 497.227570,240.863815 494.373230,244.226517 
	C493.081879,245.747894 491.721100,247.236938 490.226532,248.552994 
	C488.052734,250.467117 485.605835,252.110641 482.543152,250.872742 
	C479.498077,249.641922 478.742920,246.920883 478.665619,243.912537 
	C478.645325,243.123108 478.523346,242.336319 478.386444,240.903610 
	C473.738831,244.685440 470.268799,248.979187 465.698120,251.968811 
	C461.012482,255.033615 456.069885,258.322815 450.458252,255.404495 
	C444.761047,252.441650 444.683228,246.447250 444.913513,240.869736 
	C445.175110,234.533981 446.533051,228.334030 448.086365,222.201660 
	C448.623108,220.082581 449.582184,217.696564 452.380707,218.329254 
	C455.275879,218.983810 455.592377,221.401962 454.923370,223.922409 
	C453.122253,230.707977 451.734741,237.542938 452.248718,244.621399 
	C452.612793,249.635635 454.221436,250.640762 458.622101,248.117477 
	C468.870911,242.240921 475.801910,233.020615 482.603485,223.715210 
	C485.743652,219.419022 488.033966,214.507706 491.845581,210.701172 
	C498.507538,204.048035 506.637726,204.079865 512.434204,210.695602 
	C513.833130,212.292206 515.039246,213.976685 513.294250,215.958252 
	C511.614655,217.865601 509.665375,217.449799 508.039703,215.863220 
	C503.351959,211.288147 500.623627,211.398529 495.199249,217.550110 
	C490.357697,223.040680 486.405426,233.817810 486.080505,242.353287 
	C490.429260,238.690170 493.446167,234.365845 496.639374,230.211594 
	C498.568085,227.702438 500.356964,225.086060 502.271881,222.565872 
	C503.496796,220.953812 504.850250,219.277344 507.209106,219.955780 
	C509.530731,220.623520 509.986328,222.712799 510.087128,224.743362 
	C510.360138,230.243561 510.871460,235.719879 512.252686,241.048294 
	C513.190247,244.665359 513.393738,249.419952 517.666199,250.478500 
	C522.247437,251.613510 524.775269,247.352188 527.108521,244.283829 
	C534.388733,234.709869 540.743469,224.572876 544.016235,212.815002 
	C544.239197,212.014160 544.531738,211.232574 544.750244,210.430649 
	C545.406738,208.021576 546.388672,205.692444 549.430664,206.536148 
	C552.369873,207.351379 552.323303,209.694733 551.537292,212.217361 
	C550.311279,216.152069 549.227417,220.131058 548.789917,224.495041 
	C550.129578,223.143829 551.429016,221.749695 552.815979,220.448944 
	C558.318481,215.288544 563.996155,216.049515 567.424744,222.791489 
	C569.370911,226.618500 570.419739,230.893509 572.012146,234.911484 
	C573.210693,237.935577 573.691162,242.028488 577.525574,242.599350 
	C581.287537,243.159439 583.291016,239.621353 585.171631,236.990524 
	C588.362488,232.526657 591.138062,227.767365 594.135864,223.163330 
	C595.330933,221.327896 596.633118,219.212433 599.281006,220.680252 
	C602.004761,222.190109 601.446045,224.507370 600.154907,226.716064 
	C596.454041,233.047195 592.724365,239.371017 587.732910,244.808746 
	C580.268188,252.940887 572.424866,251.944199 567.562561,242.114273 
	C565.948669,238.851562 565.010254,235.260132 563.660278,231.859756 
	C562.642578,229.296524 562.549805,225.350388 559.514038,224.978821 
	C556.214111,224.574936 554.949951,228.401215 553.484009,230.872177 
	C548.802307,238.763794 545.129578,247.162979 541.426392,255.549423 
	C540.198608,258.329926 540.025574,263.368561 535.502747,262.120972 
	C530.705017,260.797516 533.237854,256.379333 533.605347,253.120468 
	C533.807617,251.326294 534.111389,249.543579 534.375732,247.711700 
	C527.446289,252.583740 522.501404,263.349060 511.138153,254.934174 
z"/>
<path fill="#000000" opacity="1.000000" stroke="none" 
	d="
M460.089661,204.753952 
	C459.625183,205.863785 459.363556,206.737930 458.782959,207.251541 
	C456.944214,208.878082 454.832672,209.610077 452.412231,208.537582 
	C450.970551,207.898788 450.488342,206.744980 450.952118,205.300827 
	C451.718048,202.915955 453.397034,201.305542 455.832703,200.882660 
	C458.374329,200.441360 459.942261,201.661606 460.089661,204.753952 
z"/>
</svg>