<svg xmlns="http://www.w3.org/2000/svg" xml:space="preserve" viewBox="0 0 1024 512">
    <path d="M404.686 246.701c7.956-9.227 15.64-18.219 23.425-27.123 1.055-1.207 1.551-2.465 1.892-3.947 3.014-13.136 5.961-26.288 9.176-39.374.971-3.954-.256-5.14-4.067-5.02-13.318.414-26.64.7-39.96 1.017-1.999.048-4 .039-5.998-.017-2.083-.058-3.586-1.058-3.826-3.191-.254-2.256 1.267-3.317 3.247-3.698 1.3-.25 2.644-.324 3.971-.358 14.655-.375 29.31-.922 43.965-.966 4.428-.013 6.158-1.659 7.067-5.705 1.824-8.115 3.987-16.156 6.12-24.198.67-2.52 1.355-5.852 4.962-4.79 3.538 1.04 2.412 4.105 1.724 6.741a2653 2653 0 0 0-5.681 22.248c-.397 1.574-1.13 3.14-.286 5.303 4.473 0 9.099.171 13.708-.03 22.65-.984 45.309-.768 67.966-.556 5.488.051 11.006.296 16.344 1.79 2.092.586 3.676 1.943 3.158 4.366-.463 2.167-2.128 2.731-4.238 2.413-18.064-2.724-36.251-1.307-54.383-1.451-13.487-.107-26.979.586-40.47.687-3.685.028-5.342 1.489-6.146 4.956-11.839 51.058-22.966 102.262-31.834 153.932-.36 2.092-.792 4.376.61 6.304 1.676 2.303.783 4.416-.22 6.57-1.096 2.356-2.362 4.716-5.515 3.872-2.85-.762-2.984-3.27-2.86-5.69.738-14.51 3.788-28.68 6.555-42.872 3.913-20.07 8.203-40.066 12.31-60.098.224-1.091.626-2.24-.493-3.824-6.78 7.917-13.452 15.7-20.115 23.49-.866 1.013-1.642 2.107-2.552 3.076-4.313 4.593-7.061 9.244-6.212 16.333 1.288 10.748-3.11 20.213-10.07 28.393-2.287 2.686-4.951 4.967-8.367 6.127-5.08 1.725-8.615-.68-8.907-5.983-.268-4.858 1.68-9.136 3.672-13.34 3.507-7.402 7.971-14.258 12.883-20.784 2.085-2.77 2.313-5.148.71-8.18-4.827-9.128-11.347-17.265-15.245-26.827-2.252.13-2.405 1.94-3.155 3.074-3.22 4.87-6.485 9.678-10.79 13.708-8.893 8.326-17.342 6.404-21.442-5.151-1.543-4.35-2.41-8.941-3.706-13.88-3.583 2.652-5.484 6.364-8.208 9.311a137 137 0 0 1-3.109 3.252c-2.587 2.621-5.178 5.759-9.367 4.28-4-1.413-3.894-5.385-4.382-9.502-5.732 4.36-10.468 9.387-16.203 13.148-10.604 6.956-21.358 13.575-33.914 16.448-1.382.316-2.014.936-2.423 2.093-.61 1.726-1.175 3.468-1.827 5.178-.884 2.318-1.58 5.32-4.863 4.599-3.7-.813-2.817-4.095-2.393-6.614.94-5.575 2.13-11.109 3.283-16.645 1.32-6.328 2.71-12.641 3.745-19.217-5.022 5.246-9.849 10.61-15.555 15.065-3.032 2.368-6.048 4.71-9.744 5.958-9.351 3.158-17.015-1.56-18.969-11.249-1.216-6.028.062-11.892.387-18.765-2.855 1.97-5.247 3.53-7.543 5.22-4.694 3.458-9.163 7.253-14.043 10.42-6.938 4.505-11.17 9.114-10.693 18.877.527 10.781-5.244 20.813-11.038 30.078-11.604 18.554-27.222 32.65-47.124 41.88-4.877 2.262-9.933 3.75-15.424 3.574-7.446-.237-10.982-4.634-9.039-11.902 2.26-8.453 7.64-15.095 13.28-21.483 16.947-19.19 36.493-35.553 56.576-51.276 3.862-3.024 3.804-5.051.556-8.191-5.226-5.052-11.322-8.74-17.723-12.004-12.93-6.593-26.48-11.76-39.887-17.254-3.082-1.263-6.207-2.433-9.238-3.81-17.08-7.757-21.506-21.88-11.803-38.076 7.474-12.475 17.712-22.49 29.123-31.29 19.808-15.278 41.055-27.871 65.651-33.916 5.706-1.402 11.428-2.181 17.256-.443 6.981 2.083 11.65 9.493 10.03 16.278-.473 1.982-1.171 4.094-3.775 3.838-2.218-.218-2.756-2.091-3.057-4.005-1.504-9.556-4.196-11.384-14-10.012-15.16 2.121-28.646 8.612-41.68 16.085-18.902 10.839-36.34 23.563-49.752 41.083-3.044 3.976-5.704 8.22-7.126 13.096-2.431 8.339-.05 14.794 7.683 18.903 11.635 6.183 24.172 10.352 36.242 15.573 10.553 4.564 21.1 9.114 30.505 15.902 3.92 2.829 7.36 6.144 10.752 10.27 8.858-6.56 17.397-12.882 25.934-19.206.803-.595 1.546-1.288 2.399-1.796 7.043-4.195 12.451-9.615 15.305-17.628 1.789-5.022 5.192-9.32 9.411-12.742 2.816-2.283 6.017-4.236 9.451-1.46 3.133 2.535 2.32 5.986.98 9.18-3.056 7.283-8.577 12.716-14.347 17.73-8.34 7.245-8.375 16.604-7.03 26.092.887 6.252 5.488 7.964 11.159 4.95 7.513-3.99 12.611-10.74 18.654-16.441 10.99-10.37 13.956-24.01 17.081-37.911 4.96-22.058 9.245-44.338 17.834-65.417 2.202-5.403 4.545-10.774 8.156-15.41 1.985-2.549 4.03-6.09 8.023-4.267 3.857 1.761 3.671 5.482 2.963 9.133-2.339 12.06-7.516 23.068-12.548 34.132-.62 1.363-1.216 2.762-2.028 4.012-11.504 17.723-15.792 37.901-19.917 58.151-1.515 7.44-3.261 14.831-5.218 23.67 3.972-5.711 6.783-10.429 10.549-14.425 1.255-1.333 2.44-2.759 3.838-3.925 3.166-2.641 6.736-4.928 10.907-2.883 4.32 2.118 4.17 6.463 3.88 10.52-.434 6.058-3.467 11.343-5.904 17.97 6.112-2.983 10.372-6.837 14.6-10.6 6.883-6.124 12.71-13.17 17.16-21.307 2.334-4.267 5.065-8.232 9.31-10.902 5.829-3.667 12.66-2.705 17.166 2.48 1.51 1.737 2.728 3.66.699 5.698-1.836 1.842-3.565.73-5.29-.57-5.257-3.956-7.541-3.892-11.767 1.118-5.941 7.042-8.922 15.397-10.113 24.498 2.103.691 2.646-.848 3.359-1.75 4.129-5.226 8.15-10.537 12.246-15.79 1.497-1.918 2.696-4.627 5.826-3.743 3.183.9 2.57 3.787 2.84 6.234.705 6.438 1.158 12.939 3.412 19.095 2.301 6.288 5.607 7.324 10.251 2.59 8.15-8.309 13.972-18.182 17.743-29.213 3.05-8.923 9.414-13.822 18.514-15.467 2.35-.424 4.68-.156 6.907.6 2.284.774 4.673 1.903 3.757 4.89-.816 2.658-3.091 2.277-5.408 1.905-11.323-1.821-20.139 7.92-17.359 19.162.595 2.402 1.513 4.76 2.56 7.008 3.804 8.178 9.337 15.311 14.169 23.764 4.086-4.799 7.819-9.184 11.792-13.83m-255.557 29.953c-16.298 13.952-32.708 27.81-45.041 45.651-2.294 3.319-6.42 7.541-3.914 10.996 2.835 3.91 8.159 1.074 11.904-.62 28.784-13.025 48.989-33.719 57.092-64.974.572-2.207.893-4.42-.217-7.287-6.733 5.5-13.013 10.63-19.824 16.234m117.213-30.822c-2.836 5.207-5.726 10.389-7.674 16.267 11.083-2.814 24.074-22.195 22.024-32.381-4.489 1.814-8.01 5.715-14.35 16.114m122.771 34.456c.066-.478.208-1.002-.507-1.1-.122-.016-.32.113-.394.23-2.647 4.193-5.423 8.312-7.876 12.616-2.06 3.615-4.09 7.326-4.612 12.952 8.376-6.886 12.382-14.627 13.39-24.698M289.37 129.15l-7.965 20.096c2.332-3.445 4.128-7.128 5.343-10.994.99-3.151 3.527-5.87 2.622-9.102M662.19 300.38c8.657-41.962 18.406-83.247 27.774-124.617 2.9-12.804 6.58-25.455 8.081-38.55.453-3.953 1.43-8.76-2.217-11.107-3.959-2.547-7.65 1.062-10.598 3.527-19.62 16.402-33.275 36.67-38.529 61.963-2.938 14.142 4.985 23.751 19.835 25.127 3.008.279 7.937-1.034 7.446 4.038-.45 4.649-5.11 2.6-7.863 2.478-18.846-.835-30.089-15.172-25.85-33.98 5.952-26.417 20.132-47.989 41.012-65.14 2.284-1.876 4.995-3.38 7.73-4.53 7.785-3.273 13.431-.115 15.385 8.035 1.826 7.615.017 14.934-1.607 22.2-11.327 50.65-22.799 101.267-34.212 151.897-.028.121.123.283.338.737 7.125-23.836 15.868-46.838 24.94-69.704 8.478-21.369 17.405-42.57 29.008-62.502 3.86-6.63 7.875-13.184 13.548-18.471 7.499-6.99 14.268-5.153 16.97 4.825 3.186 11.762 2.287 23.799 1.366 35.742-.868 11.25-2.223 22.462-2.95 33.81 4.694-12.576 9.163-25.241 14.13-37.707 8.518-21.377 17.725-42.44 30.905-61.486 3.341-4.829 7.083-9.306 12.126-12.446 6.19-3.855 11.455-1.884 13.493 5.126 2.625 9.027 1.51 18.276.419 27.291-5.681 46.925-15.47 93.178-23.252 139.762-1.523 9.118-3.457 18.272-3.274 27.925 2.597.424 5.992-.341 5.833 3.738-.11 2.84-5.075 8.58-7.623 8.518-3.64-.09-4.588-2.811-4.895-5.814-1.027-10.044.789-19.919 2.432-29.705 7.292-43.448 15.079-86.812 22.27-130.276 1.787-10.797 2.96-21.785 2.5-32.821-.124-2.956.095-6.013-2.184-8.718-4.531.731-6.934 4.242-9.41 7.446-10.054 13.017-17.238 27.688-24.075 42.531-14.742 32.001-25.508 65.444-35.824 99.05-.816 2.659-.806 7.13-4.845 6.324-4.49-.896-2.41-4.947-1.98-7.906 3.271-22.542 7.18-45.017 8.865-67.746.907-12.237 2.65-24.547.33-36.854-.494-2.618-.848-5.247-2.934-7.571-3.434.411-5.348 3.059-7.202 5.473-8.684 11.305-14.991 24.02-21.01 36.832-21.154 45.037-37.231 91.956-51.307 139.604a128 128 0 0 1-3.367 9.922c-.805 2.079-2.112 4.079-4.799 3.38-2.807-.731-3.225-3.081-2.945-5.585 1.274-11.415 3.812-22.61 5.915-33.88.61-3.27 1.309-6.521 2.1-10.185M945.504 201.561c-4.583-7.41-10.738-12.133-18.741-14.635-4.09-1.278-7.082-.603-10.326 2.454-13.411 12.639-28.029 23.8-45.411 30.287-6.001 2.239-7.866 5.383-8.948 11.128-5.292 28.102-10.984 56.128-15.464 84.378-.39 2.458-.541 4.954-.803 7.421 6.059 2.25 6.328 2.926 3.55 8.918-.49 1.057-.94 2.145-1.547 3.133-1.47 2.392-2.816 5.536-6.34 4.387-3.528-1.151-3.42-4.633-3.261-7.603.64-11.977 2.636-23.795 4.8-35.559 4.33-23.539 10.21-46.87 13.076-70.575 2.117-17.511 8.331-33.866 10.87-51.174 2.554-17.417 6.662-34.606 10.125-51.887.292-1.455.852-2.855-.14-4.867-8.67 1.79-16.236 5.8-22.769 11.48-12.64 10.991-16.608 25.23-14.43 41.49.087.657.37 1.293.414 1.95.155 2.333.598 5.165-2.537 5.63-3.082.456-3.51-2.216-4.06-4.592-5.615-24.226 6.917-48.387 30.59-58.698 3.501-1.525 7.132-2.782 10.768-3.963 2.435-.79 4.549-1.542 5.662-4.28 1.005-2.47 3.396-3.124 5.178-.997 1.953 2.33 4.216 2.236 6.73 2.197 8.837-.137 17.543.186 26.126 3.032 20.3 6.73 28.868 23.342 22.01 43.636-2.363 6.993-6.002 13.346-10.184 19.4-1.213 1.758-2.402 3.533-3.394 4.995.368 1.742 1.423 1.842 2.358 2.165 16.784 5.803 27.602 20.36 27.855 38.147.519 36.54-17.97 61.626-48.585 78.957-13.196 7.47-27.69 11.234-42.782 12.692-2.917.282-6.353.967-6.6-3.005-.223-3.571 3.324-3.582 5.933-3.813 17.757-1.571 34.224-6.896 48.967-17.029 19.417-13.346 31.959-31.277 35.867-54.801 1.74-10.48.541-20.558-4.557-30.399m-39.664-86.928c-4.658-.102-9.317-.165-13.974-.319-4.546-.15-6.773 1.747-7.631 6.475-2.67 14.714-5.82 29.342-8.75 44.01-1.868 9.35-3.677 18.711-5.67 28.87 13.865-10.517 28.585-15.357 44.97-14.975 2.42.056 4.101-.94 5.531-2.76 5.689-7.24 10.702-14.877 13.795-23.618 5.739-16.217-.176-28.8-16.297-34.712-3.597-1.319-7.29-2.322-11.974-2.97m-15.574 87.115c6.953-4.695 13.98-9.302 20.23-16.263-15.561 1.224-28.687 5.862-39.36 16.355-3.405 3.347-5.622 7.212-5.007 12.569 8.64-2.982 16.156-7.49 24.137-12.661"/><path d="M511.138 254.934c-5.421-6.031-5.534-13.694-7.883-21.45-3.255 3.948-6.027 7.38-8.882 10.743-1.291 1.52-2.652 3.01-4.146 4.326-2.174 1.914-4.621 3.558-7.684 2.32-3.045-1.231-3.8-3.952-3.877-6.96-.02-.79-.143-1.577-.28-3.01-4.647 3.782-8.117 8.076-12.688 11.066-4.686 3.065-9.628 6.354-15.24 3.435-5.697-2.962-5.775-8.957-5.544-14.534.261-6.336 1.62-12.536 3.172-18.668.537-2.12 1.496-4.505 4.295-3.873 2.895.655 3.211 3.073 2.542 5.593-1.8 6.786-3.188 13.62-2.674 20.7.364 5.014 1.972 6.019 6.373 3.495 10.249-5.876 17.18-15.096 23.981-24.402 3.14-4.296 5.431-9.207 9.243-13.014 6.662-6.653 14.792-6.621 20.588-.005 1.4 1.596 2.605 3.28.86 5.262-1.68 1.908-3.629 1.492-5.254-.095-4.688-4.575-7.416-4.464-12.84 1.687-4.842 5.49-8.795 16.268-9.12 24.803 4.35-3.663 7.366-7.987 10.56-12.141 1.928-2.51 3.717-5.126 5.632-7.646 1.225-1.612 2.578-3.289 4.937-2.61 2.322.668 2.777 2.757 2.878 4.787.273 5.5.784 10.977 2.166 16.305.937 3.617 1.14 8.372 5.413 9.43 4.581 1.136 7.11-3.126 9.443-6.194 7.28-9.574 13.634-19.711 16.907-31.469.223-.8.516-1.582.734-2.384.657-2.41 1.639-4.739 4.68-3.895 2.94.815 2.893 3.159 2.107 5.681-1.226 3.935-2.31 7.914-2.747 12.278 1.34-1.351 2.639-2.745 4.026-4.046 5.502-5.16 11.18-4.4 14.609 2.342 1.946 3.828 2.995 8.103 4.587 12.12 1.199 3.025 1.68 7.117 5.514 7.688 3.762.56 5.765-2.978 7.646-5.608 3.19-4.464 5.966-9.224 8.964-13.828 1.195-1.835 2.497-3.95 5.145-2.483 2.724 1.51 2.165 3.827.874 6.036-3.701 6.331-7.43 12.655-12.422 18.093-7.465 8.132-15.308 7.135-20.17-2.695-1.614-3.262-2.553-6.854-3.903-10.254-1.017-2.563-1.11-6.51-4.146-6.881-3.3-.404-4.564 3.422-6.03 5.893-4.682 7.892-8.354 16.291-12.058 24.677-1.227 2.78-1.4 7.82-5.923 6.572-4.798-1.323-2.265-5.742-1.898-9 .203-1.795.506-3.577.77-5.41-6.929 4.873-11.874 15.638-23.237 7.223M460.09 204.754c-.465 1.11-.726 1.984-1.307 2.498-1.839 1.626-3.95 2.358-6.37 1.286-1.442-.64-1.925-1.793-1.46-3.237.765-2.385 2.444-3.995 4.88-4.418 2.541-.442 4.11.779 4.257 3.871"/>
</svg>