<svg xmlns="http://www.w3.org/2000/svg" xml:space="preserve" viewBox="135 335 763 350">
    <path d="M567.82 494v-29.66l-1.494-.242c-3.851 4.728-6.776 10.1-9.877 15.331-9.001 
    15.186-17.866 30.452-26.895 45.622-4.667 7.841-16.41 11.315-24.879 7.608-2.824-1.236-4.08-3.838-5.495-6.263-11.325-19.422-22.602-38.872-33.94-58.286-.983-1.684-1.857-3.524-3.817-4.83-1.75 1.825-1.119 4.068-1.122 6.07-.046 28.16-.033 56.32-.035 84.48 0 8-2.445 10.486-10.335 10.49-6.665.003-13.331.067-19.995-.038-5.814-.092-8.195-2.43-8.2-8.269-.047-48.655-.05-97.31-.02-145.966.005-6.001 2.548-8.413 8.597-8.425 10.83-.02 21.662.096 32.492.013 5.619-.043 9.297 2.493 12.012 7.342 12.846 22.945 25.846 45.805 39.267 69.535 2.624-4.364 4.963-8.084 7.136-11.898 10.877-19.095 21.746-38.195 32.537-57.339 2.967-5.263 6.94-7.984 13.313-7.74 10.15.39 20.325.081 30.489.14 6.009.036 8.63 2.502 8.636 8.43.053 48.488.064 96.977.024 145.466-.005 6.224-2.652 8.696-8.89 8.745-6.165.049-12.33.013-18.496.004-8.764-.013-10.993-2.178-11.003-10.834-.022-19.662-.009-39.324-.01-59.486M619.427 548.195c-.165-24.592-.333-48.746-.398-72.9-.054-20.161.009-40.322.033-60.482.003-1.998-.022-4.008.169-5.992.547-5.7 2.145-7.142 7.984-7.147 25.825-.022 51.652-.075 77.477.02 10.956.04 21.497 2.475 31.494 6.884 22 9.704 31.297 35.113 20.948 56.542-2.317 4.799-6.493 7.906-10.359 12.025 2.317 1.132 4.313 2.206 6.385 3.104 19.665 8.514 25.261 30.233 21.689 46.759-4.251 19.667-17.667 29.204-35.688 34.22-8.08 2.249-16.373 3.027-24.694 3.062-27.99.118-55.983.043-83.975.037-10.06-.003-11.858-1.993-11.105-12.202.085-1.16.057-2.328.04-3.93m49.125-50.797c-1.664-.004-3.347.155-4.987-.04-4.704-.56-6.582 1.19-6.312 6.123.371 6.8.289 13.643.018 20.453-.169 4.254 1.122 5.878 5.62 5.82 16.965-.223 33.934-.05 50.902-.117 4.674-.018 9.308-.706 13.56-2.77 4.96-2.408 8.146-6.229 8.474-11.978.35-6.107-2.25-10.543-7.588-13.487-5.236-2.889-10.907-3.97-16.781-3.999-13.973-.067-27.947-.01-42.906-.005m-10.117-33.261c15.944 1.068 31.91.806 47.842.133 5.387-.228 10.959-1.921 14.14-7.237 5.58-9.328.093-19.679-11.971-20.436-15.76-.988-31.612-.51-47.424-.639-2.082-.017-3.635.791-3.6 3.167.12 8.133-.683 16.284 1.013 25.012M199.085 598.87c-18.657-28.231-37.02-56.222-56.054-83.768-8.22-11.898-7.374-28.224.53-40.478 12.097-18.753 23.572-37.906 35.3-56.896 11.026-17.852 21.762-35.892 33.132-53.522 12.047-18.68 26.126-23.005 46.676-19.905 4.338.655 8.989.353 12.713 3.066.312 1.774-.952 2.255-1.838 2.896-9.202 6.664-16.028 15.3-21.836 25.01-16.757 28.014-33.744 55.893-50.732 83.769-3.983 6.535-8.251 12.902-12.53 19.251-5.885 8.734-6.286 22.843-.435 31.674 22.45 33.882 44.675 67.92 67.628 101.46 12.396 18.113 29.884 27.8 52.476 27.57 25.993-.266 51.992-.01 77.988.025 2.33.004 4.698-.15 6.888.863 2.684 1.242 4.255 3.292 3.74 6.343-.494 2.932-2.266 4.78-5.364 5.026-1.326.105-2.664.08-3.997.08-42.16.009-84.322-.087-126.482.073-15.608.059-27.122-7.18-35.77-19.371-7.606-10.722-14.577-21.894-22.033-33.166"/><path d="M826.067 450.898c-16.72-27.098-33.28-53.87-49.748-80.698-4.677-7.619-10.336-14.272-17.611-19.514-.906-.652-2.07-1.196-1.973-3.037 4.19-2.579 9.215-2.887 14.016-3.499 19.076-2.43 32.976 1.395 44.653 20.119 23.354 37.448 46.451 75.059 69.395 112.76 7.732 12.705 7.057 25.629-1.188 38.09-25.916 39.168-51.616 78.483-77.86 117.432-7.89 11.71-19.423 18.701-34.076 18.74-42.825.11-85.651.041-128.477.037-1.165 0-2.348.048-3.492-.127-2.947-.452-4.915-2.005-5.163-5.166-.236-3.003 1.005-5.142 3.86-6.28 2.39-.953 4.89-.869 7.393-.867 25.662.02 51.325-.085 76.986.077 23.714.15 41.69-10.53 54.617-29.618 20.639-30.476 40.698-61.344 60.924-92.098 2.366-3.599 4.892-7.1 6.688-11.096 4.52-10.054 2.958-19.493-2.513-28.57-5.33-8.842-10.817-17.59-16.43-26.685M297.373 406.188c9.934-3.894 19.965-5.36 30.147-5.422 20.322-.124 40.647.007 60.97.171 5.146.042 10.307.435 15.427.984 4.602.494 5.762 2.877 3.462 6.883-3.812 6.643-7.669 13.266-11.732 19.757-3.925 6.268-10.318 7.385-17.032 7.407-16.826.054-33.652.016-50.477.075-4.318.015-8.648-.044-12.817 1.528-4.489 1.693-7.365 4.793-7.65 9.546-.272 4.562 2.809 7.234 6.612 9.089 10.444 5.095 21.885 6.758 33.026 9.366 12.792 2.994 25.686 5.452 37.628 11.332 31.008 15.27 29.67 53.303 12.554 70.17-9.874 9.73-22.396 13.994-35.752 16.25-8.93 1.509-17.941.977-26.923 1-24.156.06-48.312.03-72.469.022-1.817 0-3.685.287-5.401-.601-2.575-1.333-3.899-3.204-2.236-6.053 4.448-7.621 8.738-15.348 13.512-22.76 2.743-4.259 7.416-5.283 12.315-5.277 22.49.026 44.98.02 67.47.001 5.386-.004 10.624-.803 15.42-3.447 4.123-2.274 6.309-5.657 6.335-10.521.026-4.66-2.491-7.467-6.271-9.38-6.45-3.263-13.481-4.626-20.496-6.072-15.626-3.22-31.326-6.03-46.306-11.934-33.04-13.022-34.91-49.537-18.461-69.198 5.078-6.07 11.549-9.945 19.145-12.916M527.798 584.478c7.47.167 10.353 4.016 7.787 10.208-10.449 25.22-20.928 50.429-31.5 75.598-2.715 6.463-9.138 7.77-12.799 2.804-1.573-2.134-1.974-4.402-.866-7.035a25240 25240 0 0 0 32.2-76.936c.961-2.307 2.356-3.986 5.178-4.639M432.682 622.722c11.173-6.699 22.005-13.24 32.87-19.722 2.762-1.647 5.702-2.025 8.451-.027 2.48 1.802 2.517 4.55 2.213 7.263-.295 2.626-2.355 3.888-4.322 5.156-7.528 4.855-15.671 8.744-23.138 14.712 7.967 4.884 15.706 9.639 23.457 14.377 4.28 2.617 5.694 6.288 3.788 9.94-1.832 3.51-6.181 4.69-10.386 2.158-11.263-6.783-22.466-13.682-33.48-20.862-5.144-3.353-4.826-8.36.547-12.995M575.746 631.969l3.49-2.039c-7.365-4.584-14.328-8.93-21.304-13.258-6.382-3.958-8.29-7.743-5.889-11.755 2.393-4 6.777-3.947 13.1-.073a2869 2869 0 0 0 29.428 17.774c5.997 3.575 6.673 10.156 1.058 13.61-11.034 6.79-22.138 13.476-33.37 19.93-5.51 3.167-10.094 1.183-11.161-4.214-.705-3.566 1.242-5.627 3.965-7.297 6.799-4.17 13.597-8.342 20.683-12.678"/>
</svg>